<svg xmlns="http://www.w3.org/2000/svg" viewBox="0 0 900 900">
  <!-- Stamm Hubertus Siegen – Logo, vektorisiert 2026 nach dem Original (BdP-CD-Farben) -->
  <circle cx="450" cy="450" r="435" fill="#0e4278"/>
  <circle cx="450" cy="450" r="416" fill="#ffd208"/>
  <g transform="translate(0.000000,900.000000) scale(0.100000,-0.100000)" fill="#000000">
<path d="M4700 8823 c110 -10 258 -25 280 -28 14 -2 52 -6 85 -10 134 -14 539
-99 600 -125 11 -5 36 -12 55 -15 107 -21 403 -131 643 -239 31 -14 57 -23 57
-20 0 4 -86 46 -215 103 -36 17 -157 64 -245 97 -327 121 -986 250 -1240 242
-35 -1 -42 -2 -20 -5z M4000 8809 c-36 -4 -83 -12 -105 -18 -46 -12 6 -8 195
14 95 11 99 12 40 12 -36 0 -94 -3 -130 -8z M3695 8760 c-340 -69 -704 -179
-910 -275 -208 -97 -367 -176 -363 -180 3 -3 72 28 154 69 82 40 181 85 219
100 39 15 93 38 120 51 28 12 77 31 110 40 33 10 65 20 70 24 6 3 12 6 15 7 3
0 12 3 20 6 8 3 44 13 80 23 65 17 179 49 235 66 26 8 225 51 355 78 34 7 37
9 15 9 -16 0 -70 -8 -120 -18z M4190 8683 c-153 -12 -431 -48 -490 -63 -19 -5
-114 -28 -210 -50 -96 -23 -235 -62 -307 -87 -73 -24 -141 -45 -152 -46 -11 0
-17 -5 -15 -9 3 -4 -8 -10 -23 -13 -15 -4 -51 -17 -80 -31 -28 -13 -56 -24
-61 -24 -10 0 -66 -25 -102 -46 -14 -8 -54 -28 -90 -44 -36 -17 -78 -38 -95
-47 -16 -9 -50 -27 -75 -40 -25 -14 -62 -36 -82 -50 -20 -14 -41 -22 -47 -19
-5 4 -15 -3 -21 -14 -10 -18 -85 -60 -109 -60 -6 0 -15 -9 -21 -20 -6 -11 -16
-20 -23 -20 -7 0 -28 -13 -47 -29 -19 -15 -45 -31 -57 -35 -11 -4 -24 -13 -26
-21 -3 -7 -33 -32 -65 -54 -33 -22 -66 -46 -73 -53 -24 -23 -84 -72 -124 -103
-45 -34 -122 -103 -178 -157 -21 -21 -42 -38 -48 -38 -5 0 -12 -7 -16 -17 -10
-25 -205 -223 -215 -217 -4 3 -6 -1 -3 -8 3 -7 -20 -42 -51 -78 -56 -65 -180
-225 -220 -284 -12 -17 -29 -37 -38 -45 -9 -7 -16 -17 -16 -22 0 -5 -14 -28
-30 -51 -17 -22 -30 -46 -30 -53 0 -6 -13 -27 -30 -45 -16 -18 -30 -43 -30
-56 0 -12 -7 -27 -16 -35 -8 -7 -25 -31 -36 -53 -11 -23 -24 -43 -28 -46 -14
-9 -48 -76 -55 -108 -3 -18 -10 -32 -14 -32 -4 0 -13 -17 -20 -37 -7 -21 -23
-48 -34 -60 -11 -13 -18 -26 -15 -29 6 -5 -27 -89 -57 -144 -7 -14 -18 -45
-25 -69 -9 -34 -14 -41 -22 -30 -8 11 -9 11 -4 -3 3 -10 -24 -106 -59 -214
-36 -109 -65 -206 -65 -216 0 -10 -4 -26 -9 -36 -23 -44 -64 -264 -85 -454 -8
-70 -17 -131 -19 -135 -22 -38 -28 -599 -9 -768 6 -55 16 -147 22 -205 6 -58
15 -125 20 -150 6 -25 24 -112 41 -195 17 -82 34 -166 38 -185 4 -20 19 -69
33 -110 14 -41 33 -97 41 -125 28 -90 69 -199 93 -253 13 -29 24 -58 24 -65 0
-10 123 -270 152 -322 7 -11 37 -65 67 -120 30 -55 58 -102 61 -105 4 -3 13
-16 20 -30 26 -52 113 -180 121 -180 5 0 9 -11 9 -24 0 -13 11 -31 26 -42 14
-10 44 -46 67 -79 22 -33 67 -90 99 -126 32 -36 58 -69 58 -72 0 -15 276 -296
389 -397 34 -30 78 -70 97 -87 20 -18 39 -33 42 -33 4 0 25 -18 47 -40 22 -22
64 -54 93 -71 30 -17 56 -38 59 -46 3 -7 24 -23 46 -34 22 -12 51 -32 64 -45
13 -13 30 -24 37 -24 8 0 19 -6 25 -14 7 -8 36 -26 66 -41 31 -14 60 -35 65
-46 6 -10 16 -19 23 -19 17 0 78 -30 151 -74 33 -20 66 -36 74 -36 7 0 33 -14
57 -30 24 -17 50 -30 58 -30 8 0 25 -9 39 -19 13 -11 56 -31 94 -44 38 -13 90
-34 116 -46 26 -11 51 -21 56 -21 5 0 23 -7 38 -15 16 -8 36 -15 44 -15 8 0
29 -9 46 -19 18 -11 47 -22 65 -25 19 -3 54 -12 79 -21 150 -53 573 -139 741
-150 39 -3 74 -7 78 -10 12 -6 246 -17 426 -18 214 -2 548 29 742 69 40 8 85
17 100 20 15 3 60 12 98 21 39 8 84 17 100 20 17 2 39 8 50 13 11 5 58 21 105
35 127 39 287 98 435 160 17 7 32 12 35 12 3 0 36 17 73 37 38 20 73 36 79 36
5 0 16 7 24 15 8 8 34 20 57 27 23 6 54 20 68 30 14 9 29 15 33 11 3 -3 6 -2
6 4 0 16 91 68 120 68 17 0 26 7 30 24 4 17 17 28 45 38 21 7 49 22 60 33 12
11 26 20 33 20 6 0 27 13 45 30 19 16 39 30 43 30 5 0 32 20 59 45 28 25 64
52 81 59 17 8 40 25 51 39 11 14 37 37 59 51 81 52 430 397 551 545 16 18 48
55 73 81 25 26 54 65 65 86 11 21 37 55 58 76 20 21 37 42 37 48 0 5 22 41 49
78 27 38 58 90 69 116 12 25 25 46 29 45 25 -4 33 3 28 23 -4 15 3 35 20 57
14 19 25 38 25 43 0 4 16 32 35 62 19 30 35 61 35 68 0 7 9 24 20 38 11 14 20
30 20 36 0 6 22 55 50 110 27 54 50 107 50 117 0 9 4 25 10 35 17 30 60 134
60 146 0 6 11 38 24 71 36 88 84 244 92 295 4 25 11 53 15 62 30 58 88 429
117 743 11 123 8 467 -6 590 -7 61 -15 139 -18 175 -3 36 -10 92 -15 125 -6
33 -16 99 -24 147 -15 97 -43 223 -55 253 -5 11 -11 37 -15 59 -3 21 -10 46
-15 55 -4 9 -27 77 -51 151 -23 74 -62 183 -86 243 -24 59 -43 116 -43 127 0
12 -7 23 -15 26 -8 3 -17 16 -21 27 -6 21 -72 167 -98 217 -43 81 -80 147 -92
161 -8 8 -14 19 -14 24 0 4 -18 34 -40 67 -22 33 -40 67 -40 75 0 13 -12 31
-60 90 -6 7 -10 17 -10 23 0 5 -4 10 -9 10 -5 0 -21 20 -35 45 -15 25 -30 45
-34 45 -4 0 -16 13 -25 30 -10 16 -23 35 -30 42 -7 7 -30 36 -52 63 -22 28
-45 55 -51 60 -6 6 -21 27 -33 48 -13 20 -27 37 -32 37 -5 0 -9 7 -9 15 0 8
-4 15 -9 15 -4 0 -23 16 -42 36 -19 20 -65 67 -104 105 -38 38 -66 69 -62 69
5 0 -8 15 -30 33 -21 18 -60 53 -88 78 -67 62 -81 74 -215 178 -63 50 -134
107 -157 127 -22 21 -48 39 -57 40 -15 2 -60 34 -97 69 -8 8 -31 21 -50 29
-18 8 -49 26 -68 40 -19 14 -39 26 -44 26 -8 0 -74 39 -170 102 -23 15 -49 28
-58 28 -8 0 -60 23 -114 50 -54 28 -105 50 -112 50 -7 0 -13 5 -13 10 0 6 -5
10 -10 10 -6 0 -61 20 -123 44 -62 24 -164 61 -227 81 -63 20 -129 43 -146 50
-17 7 -53 16 -80 20 -27 4 -85 17 -129 30 -291 84 -878 130 -1265 98z m780
-38 c615 -78 1138 -253 1637 -546 1279 -753 2063 -2119 2063 -3598 0 -2407
-2044 -4322 -4440 -4162 -2196 147 -3899 1962 -3900 4156 -1 1347 635 2590
1736 3390 624 455 1361 718 2179 779 120 9 606 -4 725 -19z M4454 7848 c-18
-6 -58 -35 -90 -65 -82 -76 -146 -105 -350 -158 -7 -2 -13 -72 -18 -201 -7
-191 -12 -221 -44 -253 -12 -12 -17 -10 -39 18 -47 60 -338 160 -663 227 -175
37 -162 40 -274 -76 -52 -55 -98 -110 -101 -123 -12 -51 -35 -202 -35 -226 0
-24 16 -34 178 -116 229 -115 224 -112 258 -191 l28 -66 -75 -72 c-176 -169
-265 -249 -298 -266 -81 -41 -191 -55 -218 -27 -15 14 -19 12 -45 -24 -56 -77
-131 -119 -271 -150 -151 -33 -219 -80 -304 -208 -108 -162 -213 -547 -213
-778 0 -44 -13 -48 -58 -19 -146 92 -275 73 -359 -53 -52 -76 -52 -80 -8 -179
35 -80 55 -162 39 -162 -5 0 -18 7 -28 15 -29 22 -44 19 -140 -30 -49 -25 -99
-45 -111 -45 -84 0 -135 -67 -143 -185 -6 -90 21 -150 161 -363 244 -372 534
-722 663 -798 78 -46 255 -54 414 -19 36 8 108 22 160 31 108 19 262 102 274
147 11 45 -14 113 -65 178 -36 46 -36 45 4 65 17 9 35 21 39 27 4 6 31 -2 71
-21 36 -18 68 -32 71 -32 3 0 29 -11 58 -24 243 -113 1066 -400 1677 -586
l103 -32 196 -181 c288 -269 285 -266 307 -272 11 -2 69 -16 128 -30 160 -37
165 -40 309 -170 44 -40 50 -49 61 -111 l12 -68 43 -11 c44 -10 147 -109 316
-299 46 -52 97 -93 204 -163 79 -52 174 -123 212 -158 81 -76 120 -89 172 -57
66 41 77 60 68 124 -5 32 -6 66 -3 76 3 13 -5 27 -22 40 -27 21 -27 25 -29
134 l-1 113 -98 263 c-132 358 -121 338 -318 533 -112 110 -174 179 -185 205
-9 21 -31 64 -49 94 -52 86 -61 146 -46 308 12 132 14 138 57 214 30 53 44 89
44 115 0 103 5 111 95 155 72 36 87 48 114 93 40 66 42 59 -38 179 l-69 103
-122 43 c-139 49 -130 42 -194 154 -37 64 -70 104 -130 160 -45 41 -110 101
-146 135 -103 95 -230 129 -422 112 -170 -16 -315 8 -533 88 -245 89 -279 106
-551 276 -117 73 -238 147 -270 164 -125 67 -152 96 -185 196 -36 114 -37 108
12 172 37 49 54 61 167 116 l126 62 161 1 c221 0 228 1 221 19 -16 43 26 57
91 30 71 -30 483 -365 449 -365 -44 0 210 -197 478 -370 205 -133 181 -101
237 -318 38 -149 29 -142 213 -142 207 0 361 34 411 90 19 21 24 76 13 145 -3
18 4 20 94 26 216 14 248 31 248 133 l0 62 154 13 c363 29 440 67 434 211 l-3
75 50 5 c82 9 189 81 296 198 124 135 138 208 59 301 l-21 25 -114 -19 c-137
-22 -149 -20 -306 65 -131 70 -139 72 -220 59 -158 -25 -338 -107 -399 -182
-93 -115 -84 -91 88 233 85 161 100 239 54 291 -25 28 -35 31 -137 44 -130 16
-109 25 -275 -115 -247 -208 -349 -265 -474 -265 -69 0 -90 5 -140 29 -58 29
-166 127 -166 152 0 7 48 41 106 75 228 133 282 238 178 347 l-43 45 -93 -7
c-50 -4 -114 -12 -142 -18 -49 -10 -244 -5 -328 8 -45 8 -44 1 -24 222 12 132
15 145 37 160 90 62 209 203 209 248 0 62 -121 100 -291 92 -115 -5 -180 -32
-218 -90 l-24 -38 -77 0 c-106 0 -125 14 -86 64 47 62 51 178 13 346 l-12 55
-75 2 c-41 1 -89 -3 -106 -9z m-2070 -3940 c5 -10 7 -10 12 0 17 36 129 -15
202 -93 53 -57 62 -71 40 -63 -7 3 -65 -1 -128 -8 -230 -26 -312 -16 -318 39
-4 34 37 125 48 106 11 -17 44 -3 36 16 -7 20 99 22 108 3z M2315 8245 c-50
-30 -107 -64 -127 -75 -52 -28 -232 -156 -249 -176 -13 -16 -12 -16 6 -6 11 5
29 19 40 29 36 32 75 54 87 47 6 -4 8 -3 5 3 -7 11 41 49 56 45 4 -1 7 3 7 8
0 6 7 10 15 10 8 0 23 8 34 19 10 10 63 45 117 77 116 68 108 63 103 68 -3 3
-45 -19 -94 -49z M6594 8291 c4 -7 18 -16 29 -22 24 -10 39 -19 110 -67 27
-18 69 -44 93 -58 75 -42 154 -101 146 -109 -4 -5 -1 -5 6 -1 8 5 25 -4 44
-23 31 -30 53 -40 46 -22 -4 12 -204 153 -257 182 -20 11 -56 32 -81 47 -98
61 -143 85 -136 73z M1851 7934 c-257 -187 -711 -650 -825 -841 -20 -35 8 -6
45 45 23 31 47 62 53 67 7 6 39 44 71 85 90 113 416 436 545 540 17 14 37 30
43 35 7 6 40 32 75 58 54 42 70 57 59 57 -2 0 -31 -21 -66 -46z M7080 7973 c0
-5 18 -19 40 -33 22 -14 40 -28 40 -32 0 -5 6 -8 14 -8 8 0 18 -9 21 -20 4
-11 10 -18 14 -16 4 3 24 -9 43 -27 20 -18 58 -50 84 -72 65 -53 399 -387 449
-450 22 -27 48 -59 58 -70 10 -10 15 -25 13 -32 -3 -6 0 -10 7 -7 7 2 30 -21
52 -52 22 -31 58 -80 80 -108 49 -62 93 -129 118 -178 11 -21 23 -38 28 -38 5
0 9 -5 9 -11 0 -5 19 -38 42 -72 50 -75 47 -71 53 -66 2 3 -11 29 -30 58 -19
29 -35 55 -35 57 0 7 -159 239 -178 260 -9 10 -29 37 -44 60 -94 145 -445 520
-642 685 -155 130 -236 189 -236 172z M993 7048 c-29 -33 -141 -194 -164 -237
-11 -20 -38 -65 -61 -101 -65 -103 -218 -408 -283 -565 -28 -66 -95 -258 -95
-269 1 -15 29 36 30 52 1 47 196 491 286 652 20 36 42 74 48 85 6 11 29 47 51
79 22 32 47 71 55 85 8 14 18 28 22 31 3 3 5 8 5 11 -2 6 29 52 51 74 6 8 12
18 12 23 0 6 16 29 35 52 19 23 35 44 35 46 0 8 -7 3 -27 -18z M8260 6634 c11
-20 25 -44 33 -53 7 -9 21 -33 31 -53 9 -20 22 -40 28 -44 6 -4 -11 35 -39 86
-47 88 -94 145 -53 64z M8361 6462 c-1 -8 6 -26 14 -40 29 -54 77 -158 95
-207 10 -27 34 -87 54 -133 19 -46 47 -119 61 -163 15 -44 29 -78 32 -75 8 7
-61 203 -120 341 -63 147 -136 295 -136 277z M336 5702 c-14 -44 -39 -142 -56
-218 -17 -77 -35 -157 -41 -179 -5 -22 -14 -71 -19 -110 -5 -38 -13 -97 -19
-130 -14 -83 -25 -241 -17 -233 4 3 10 37 12 75 14 193 86 567 151 781 14 45
23 85 20 88 -3 3 -17 -30 -31 -74z M8640 5753 c0 -5 7 -32 15 -59 16 -54 65
-266 101 -439 20 -91 23 -100 19 -50 -8 107 -135 624 -135 548z M8784 5095
c11 -93 28 -249 36 -350 8 -95 8 -93 4 35 -5 139 -28 348 -40 359 -4 3 -4 -16
0 -44z M8822 4495 c1 -57 5 -102 10 -99 12 8 10 204 -2 204 -6 0 -9 -40 -8
-105z M172 4295 c-2 -58 24 -368 33 -392 2 -6 9 -49 15 -95 12 -86 73 -359
108 -483 67 -238 77 -266 159 -470 57 -140 155 -347 161 -340 3 2 -7 28 -21
56 -15 28 -27 55 -27 61 0 5 -8 22 -18 36 -39 56 -180 429 -208 552 -9 36 -20
74 -25 85 -16 35 -70 276 -64 286 4 5 2 9 -2 9 -24 0 -88 422 -106 705 -3 49
-3 49 -5 -10z M8821 4286 c-2 -72 -32 -339 -51 -457 -11 -64 -20 -125 -19
-135 1 -35 17 18 24 82 4 32 13 93 20 134 16 92 40 382 32 401 -3 8 -6 -4 -6
-25z M8734 3638 c-4 -18 -8 -40 -10 -48 -6 -40 -51 -213 -85 -324 -12 -39 -12
-67 0 -46 24 43 119 435 108 446 -3 3 -9 -10 -13 -28z M8617 3180 c-3 -14 -15
-52 -26 -84 -23 -66 -25 -74 -12 -60 13 14 53 143 48 157 -2 6 -6 1 -10 -13z
M8516 2907 c-15 -39 -39 -103 -53 -142 -14 -38 -29 -74 -34 -80 -5 -5 -9 -14
-9 -19 0 -17 25 25 50 84 92 216 97 230 83 230 -5 0 -21 -33 -37 -73z M685
2435 c53 -97 62 -114 95 -165 16 -25 39 -63 51 -85 12 -22 24 -42 28 -45 3 -3
32 -44 65 -92 32 -48 68 -95 79 -105 21 -18 21 -18 4 7 -81 117 -116 168 -137
206 -22 39 -41 69 -121 186 -11 15 -19 31 -19 35 0 9 -63 110 -76 121 -4 4 10
-24 31 -63z M8181 2233 c-45 -59 -67 -103 -52 -103 5 0 11 6 15 13 3 6 17 30
31 52 67 108 69 123 6 38z M8073 2063 c-37 -56 -62 -89 -93 -122 -8 -9 -22
-30 -30 -46 -8 -16 -32 -47 -52 -69 -21 -21 -38 -41 -38 -44 0 -2 -12 -19 -27
-37 -16 -17 -34 -41 -42 -53 -8 -11 -18 -19 -23 -16 -4 3 -8 -2 -8 -10 0 -16
-339 -361 -424 -431 -26 -22 -65 -55 -87 -74 -21 -18 -39 -30 -39 -26 0 4 -9
-4 -20 -18 -11 -14 -40 -38 -65 -54 -25 -15 -45 -31 -45 -35 0 -13 11 -9 39
15 15 12 40 31 56 42 85 60 298 252 426 382 108 111 287 317 341 393 10 14 28
39 40 57 13 18 49 69 82 113 32 45 56 83 53 86 -2 3 -22 -21 -44 -53z M1020
1916 c0 -29 238 -305 419 -487 177 -177 448 -409 478 -409 5 0 16 -8 24 -17
25 -28 221 -162 243 -166 5 -1 19 -10 30 -19 56 -45 332 -198 358 -198 7 1
-12 14 -42 29 -52 26 -133 70 -190 102 -53 30 -138 88 -145 98 -3 6 -11 9 -16
6 -5 -4 -9 -1 -9 4 0 6 -7 11 -15 11 -8 0 -15 5 -15 11 0 5 -4 7 -10 4 -6 -3
-10 -2 -10 2 0 5 -10 13 -22 18 -13 6 -22 17 -20 24 1 7 -2 10 -7 6 -15 -9
-164 95 -236 165 -16 15 -55 45 -85 66 -57 39 -75 54 -229 200 -182 173 -398
414 -384 428 4 3 -1 6 -9 6 -9 0 -30 22 -48 49 -29 47 -60 81 -60 67z M7045
1004 c-11 -8 -25 -12 -31 -10 -6 2 -11 -1 -10 -9 1 -12 -97 -85 -115 -85 -5 0
-9 -4 -9 -10 0 -5 -6 -10 -13 -10 -14 0 -157 -97 -157 -107 0 -2 15 4 33 16
17 11 49 29 69 41 50 27 232 156 248 175 16 19 11 19 -15 -1z M6560 700 c-58
-32 -118 -66 -134 -75 -16 -8 -26 -19 -22 -23 4 -3 10 -2 14 3 4 6 54 34 112
63 99 49 168 93 145 91 -5 -1 -57 -27 -115 -59z M2651 578 c192 -95 340 -151
584 -223 128 -37 167 -44 121 -20 -15 8 -35 15 -44 15 -18 0 -33 4 -192 54
-63 20 -118 36 -122 36 -4 0 -35 13 -68 29 -34 17 -78 35 -98 42 -20 6 -73 29
-117 49 -100 47 -154 62 -64 18z M6298 566 c-37 -18 -70 -31 -73 -28 -2 3 -10
0 -17 -5 -22 -17 -200 -90 -263 -108 -33 -9 -74 -23 -91 -31 -17 -7 -67 -22
-110 -33 -43 -11 -119 -31 -169 -44 -49 -13 -126 -32 -170 -42 -44 -10 -75
-20 -69 -22 13 -4 245 47 344 76 275 80 400 124 540 188 135 62 173 82 160 82
-8 0 -45 -15 -82 -33z M3396 312 c12 -12 304 -76 311 -69 6 6 -14 11 -187 51
-125 28 -139 30 -124 18z M5225 239 c-69 -14 -369 -52 -402 -50 -18 1 -33 -3
-33 -9 0 -6 10 -8 25 -4 19 5 25 2 25 -10 0 -15 2 -15 31 -1 17 9 70 21 117
26 111 12 322 46 330 53 8 8 -45 5 -93 -5z M3850 217 c10 -11 230 -35 360 -41
143 -6 86 4 -135 24 -71 6 -152 14 -180 17 -27 3 -48 3 -45 0z"/>
  </g>
</svg>
