<svg xmlns="http://www.w3.org/2000/svg" viewBox="0 0 130 165">
  <g fill="#ffd208" stroke="#0e4278" stroke-width="3.2" stroke-linejoin="round" stroke-linecap="round">
    <!-- Handfläche mit Handgelenk -->
    <path d="M38,92 L94,92 L94,132 Q94,152 74,152 L58,152 Q38,152 38,132 Z"/>
    <!-- kleiner Finger, eingeklappt (nur Knöchel sichtbar) -->
    <path d="M38,94 L38,80 Q38,72 45,72 Q52,72 52,80 L52,94 Z"/>
    <!-- Ringfinger -->
    <path d="M48,94 L48,34 Q48,26 56,26 Q64,26 64,34 L64,94 Z"/>
    <!-- Mittelfinger -->
    <path d="M64,94 L64,24 Q64,16 72,16 Q80,16 80,24 L80,94 Z"/>
    <!-- Zeigefinger -->
    <path d="M80,94 L80,36 Q80,28 88,28 Q96,28 96,36 L96,94 Z"/>
    <!-- Daumen: kompakte Kapsel diagonal über den kleinen Finger -->
    <path d="M99,124 Q106,116 99,108 L60,84 Q52,79 47,86 Q42,93 50,98 L88,122 Q94,127 99,124 Z"/>
  </g>
</svg>
